Coordinates
version=1
nRows=8
nColumns=40
inDegrees=yes

Units are S.I. units (second, meters, Newtons, ...)
If the header above contains a line with 'inDegrees', this indicates whether rotational values are in degrees (yes) or radians (no).

endheader
time	pelvis_tilt	pelvis_list	pelvis_rotation	pelvis_tx	pelvis_ty	pelvis_tz	hip_flexion_r	hip_adduction_r	hip_rotation_r	knee_angle_r	knee_angle_r_beta	ankle_angle_r	subtalar_angle_r	mtp_angle_r	hip_flexion_l	hip_adduction_l	hip_rotation_l	knee_angle_l	knee_angle_l_beta	ankle_angle_l	subtalar_angle_l	mtp_angle_l	lumbar_extension	lumbar_bending	lumbar_rotation	arm_flex_r	arm_add_r	arm_rot_r	elbow_flex_r	pro_sup_r	wrist_flex_r	wrist_dev_r	arm_flex_l	arm_add_l	arm_rot_l	elbow_flex_l	pro_sup_l	wrist_flex_l	wrist_dev_l
      0.90000000	     -1.12231635	      7.66145486	    -89.73273489	      0.18195894	      0.92489203	      0.47766580	      3.12968141	      4.00525280	      1.60279574	      2.05325972	      0.03583614	      8.37807143	      0.00000000	      0.00000000	     36.11035417	     -5.24081486	     -5.25239665	     63.96875225	      1.11646535	      4.23824383	      0.00000000	      0.00000000	     -4.24273106	      1.58833099	     -2.14199102	      0.00000000	      0.00000000	      0.00000000	      0.00000000	      0.00000000	      0.00000000	      0.00000000	      0.00000000	      0.00000000	      0.00000000	      0.00000000	      0.00000000	      0.00000000	      0.00000000
      0.91000000	     -0.91168694	      8.10977741	    -89.76618968	      0.18214381	      0.92400096	      0.49320147	      1.67036456	      3.78642471	      1.66480057	      0.46270046	      0.00807565	      8.51563063	      0.00000000	      0.00000000	     37.66238418	     -4.75422444	     -5.17327052	     61.11221646	      1.06660939	      4.77721710	      0.00000000	      0.00000000	     -3.84032742	      1.37792666	     -2.07920802	      0.00000000	      0.00000000	      0.00000000	      0.00000000	      0.00000000	      0.00000000	      0.00000000	      0.00000000	      0.00000000	      0.00000000	      0.00000000	      0.00000000	      0.00000000	      0.00000000
      0.92000000	     -0.57266941	      7.99144121	    -89.78835858	      0.18239108	      0.92349613	      0.50926661	     -0.50431093	      3.42794991	      1.80506967	     -1.26372088	     -0.02205609	      8.50193093	      0.00000000	      0.00000000	     38.30181966	     -4.12562330	     -5.12290047	     57.76880506	      1.00825585	      5.05003014	      0.00000000	      0.00000000	     -4.08051500	      0.99922029	     -2.16023712	      0.00000000	      0.00000000	      0.00000000	      0.00000000	      0.00000000	      0.00000000	      0.00000000	      0.00000000	      0.00000000	      0.00000000	      0.00000000	      0.00000000	      0.00000000	      0.00000000
      0.93000000	     -0.34874584	      8.07106596	    -89.80878652	      0.18260422	      0.92200750	      0.52516548	     -2.29517494	      3.20529730	      1.79323165	     -2.65438360	     -0.04632773	      8.69297891	      0.00000000	      0.00000000	     39.07985927	     -3.62959807	     -4.99947566	     54.23451977	      0.94657094	      5.16803980	      0.00000000	      0.00000000	     -4.11142052	      0.74901782	     -2.16058249	      0.00000000	      0.00000000	      0.00000000	      0.00000000	      0.00000000	      0.00000000	      0.00000000	      0.00000000	      0.00000000	      0.00000000	      0.00000000	      0.00000000	      0.00000000	      0.00000000
      0.94000000	     -0.20880958	      8.20792270	    -89.82627533	      0.18282499	      0.91982838	      0.54093002	     -3.92329809	      3.07312140	      1.81658018	     -3.86537923	     -0.06746359	      9.00578200	      0.00000000	      0.00000000	     39.82915359	     -3.23356064	     -4.81805054	     50.47941438	      0.88103199	      5.04109198	      0.00000000	      0.00000000	     -4.08855545	      0.58824544	     -2.20571315	      0.00000000	      0.00000000	      0.00000000	      0.00000000	      0.00000000	      0.00000000	      0.00000000	      0.00000000	      0.00000000	      0.00000000	      0.00000000	      0.00000000	      0.00000000	      0.00000000
      0.95000000	     -0.15214528	      8.43471290	    -89.84070303	      0.18303494	      0.91694708	      0.55660617	     -5.36842180	      3.04226167	      1.86989818	     -4.89613285	     -0.08545364	      9.44909677	     -0.00000000	      0.00000000	     40.58400841	     -2.93018867	     -4.56780595	     46.51857910	      0.81190237	      4.65947751	      0.00000000	     -0.00000000	     -3.97497808	      0.51046244	     -2.23159813	      0.00000000	      0.00000000	     -0.00000000	      0.00000000	      0.00000000	      0.00000000	      0.00000000	      0.00000000	     -0.00000000	     -0.00000000	      0.00000000	      0.00000000	      0.00000000	     -0.00000000
      0.96000000	     -0.12237547	      8.55847857	    -89.85235308	      0.18328443	      0.91375130	      0.57246477	     -6.88009193	      3.04874454	      1.78944672	     -5.82068748	     -0.10159016	      9.89340218	      0.00000000	      0.00000000	     41.08985620	     -2.68047245	     -4.33483060	     42.34775406	      0.73910774	      4.12692706	      0.00000000	      0.00000000	     -3.96912632	      0.47367956	     -2.26696608	      0.00000000	      0.00000000	      0.00000000	      0.00000000	      0.00000000	      0.00000000	      0.00000000	      0.00000000	      0.00000000	      0.00000000	      0.00000000	      0.00000000	      0.00000000	      0.00000000
      0.97000000	     -0.14066228	      8.56763590	    -89.86078290	      0.18352964	      0.91028510	      0.58840650	     -8.48445714	      3.12383937	      1.60648267	     -6.66038052	     -0.11624557	     10.32157885	      0.00000000	      0.00000000	     41.35395209	     -2.48733274	     -4.06364705	     38.00645475	      0.66333777	      3.54625663	     -0.00000000	     -0.00000000	     -4.09749666	      0.46597752	     -2.31696372	     -0.00000000	      0.00000000	      0.00000000	      0.00000000	      0.00000000	      0.00000000	      0.00000000	      0.00000000	      0.00000000	      0.00000000	      0.00000000	      0.00000000	      0.00000000	      0.00000000
